HIERARCHY
ROOT hip
{
	OFFSET 0.000000 0.000000 0.000000 
	CHANNELS 6 Xposition Yposition Zposition Xrotation Zrotation Yrotation
	JOINT abdomen
	{
		OFFSET 0.000000 3.402643 0.000000 
		CHANNELS 3 Xrotation Zrotation Yrotation
		JOINT chest
		{
			OFFSET 0.000000 8.438565 -0.680529 
			CHANNELS 3 Xrotation Zrotation Yrotation
			JOINT neck
			{
				OFFSET 0.000000 10.207942 -0.272212 
				CHANNELS 3 Xrotation Zrotation Yrotation
				JOINT head
				{
					OFFSET 0.000000 3.130431 0.000000 
					CHANNELS 3 Xrotation Zrotation Yrotation
					End Site
					{
						OFFSET 0.000000 3.130435 0.000000 
					}
				}
			}
			JOINT lCollar
			{
				OFFSET 3.470700 6.669187 -0.816635 
				CHANNELS 3 Yrotation Zrotation Xrotation
				JOINT lShldr
				{
					OFFSET 3.198488 0.000000 0.000000 
					CHANNELS 3 Zrotation Yrotation Xrotation
					JOINT lForeArm
					{
						OFFSET 10.139888 0.000000 0.000000 
						CHANNELS 3 Yrotation Zrotation Xrotation
						JOINT lHand
						{
							OFFSET 8.370511 0.000000 0.000000 
							CHANNELS 3 Zrotation Yrotation Xrotation
							End Site
							{
								OFFSET 4.083176 0.000000 0.000000 
							}
						}
					}
				}
			}
			JOINT rCollar
			{
				OFFSET -3.470700 6.669187 -0.816635 
				CHANNELS 3 Yrotation Zrotation Xrotation
				JOINT rShldr
				{
					OFFSET -3.198488 0.000000 0.000000 
					CHANNELS 3 Zrotation Yrotation Xrotation
					JOINT rForeArm
					{
						OFFSET -10.139888 0.000000 0.000000 
						CHANNELS 3 Yrotation Zrotation Xrotation
						JOINT rHand
						{
							OFFSET -8.370511 0.000000 0.000000 
							CHANNELS 3 Zrotation Yrotation Xrotation
							End Site
							{
								OFFSET -4.083176 0.000000 0.000000 
							}
						}
					}
				}
			}
		}
	}
	JOINT lThigh
	{
		OFFSET 5.308129 -1.633274 1.361059 
		CHANNELS 3 Xrotation Zrotation Yrotation
		JOINT lShin
		{
			OFFSET -2.041588 -20.007561 0.000000 
			CHANNELS 3 Xrotation Zrotation Yrotation
			JOINT lFoot
			{
				OFFSET 0.000000 -19.190928 -1.224953 
				CHANNELS 3 Xrotation Yrotation Zrotation
				End Site
				{
					OFFSET 0.000000 -2.449906 4.627600 
				}
			}
		}
	}
	JOINT rThigh
	{
		OFFSET -5.308129 -1.633274 1.361059 
		CHANNELS 3 Xrotation Zrotation Yrotation
		JOINT rShin
		{
			OFFSET 2.041588 -20.007561 0.000000 
			CHANNELS 3 Xrotation Zrotation Yrotation
			JOINT rFoot
			{
				OFFSET 0.000000 -19.190928 -1.224953 
				CHANNELS 3 Xrotation Yrotation Zrotation
				End Site
				{
					OFFSET 0.000000 -2.449906 4.627600 
				}
			}
		}
	}
}
MOTION
Frames: 18
Frame Time: 0.016667
-0.270971 20.445932 -9.202032 -18.026848 -26.079624 4.585125 67.602066 26.732433 20.044374 7.381927 -0.907701 4.629131 3.871800 4.508213 0.228354 -2.817887 -2.227101 42.461262 -18.468716 -2.704006 -0.137384 -60.895042 -44.567768 21.195230 -91.375183 0.450505 0.069063 -44.625313 30.000000 19.505491 24.313513 6.132878 -0.325213 60.416767 22.779295 16.578413 25.600655 -0.472506 -4.398930 -16.515623 -24.763422 31.539007 -89.185028 9.823604 -3.105860 144.990036 8.282838 -2.887783 -49.782211 17.806143 16.925409 -13.603519 -13.007431 -39.997017 144.996658 -9.995801 5.175395 -74.742455 -1.446060 -13.789492 
-0.277336 20.446903 -9.299587 -17.403671 -25.983797 3.476231 67.202698 26.002020 19.812395 7.404474 -0.751462 4.843828 3.778515 4.248443 0.207806 -2.820205 -2.307692 42.816166 -18.399918 -2.518707 -0.127816 -61.036858 -44.333008 20.983896 -91.326241 0.470168 0.073655 -44.240845 30.000000 19.843370 24.750479 5.684195 -0.301972 60.657360 23.409830 17.698996 23.752665 -0.693978 -5.252890 -14.527451 -23.805891 30.610312 -89.616440 10.741714 -3.253878 144.983734 8.086311 -2.886106 -50.575081 17.240589 17.199209 -14.930885 -12.639686 -39.990837 144.972275 -9.997846 5.037724 -75.277473 -1.774029 -13.670447 
-0.283295 20.470449 -9.401891 -16.722441 -25.907619 2.419576 66.802109 25.421045 19.655914 7.367536 -0.644045 5.029376 3.557111 3.927820 0.177476 -2.845876 -2.455012 42.900242 -18.341087 -2.411428 -0.122275 -61.081123 -44.027058 20.760199 -91.130852 0.499699 0.073397 -43.590073 30.000000 20.391006 25.167721 5.157496 -0.274671 60.925014 24.015226 18.738155 22.020638 -0.906891 -6.244270 -11.921169 -23.325666 29.422258 -90.082619 11.630181 -3.429235 144.991562 7.931530 -2.868825 -51.171455 16.758551 17.267435 -16.190773 -12.222880 -39.990253 144.974869 -9.998499 4.957028 -75.761200 -2.135665 -13.589637 
-0.288845 20.516565 -9.508939 -15.986056 -25.852350 1.428306 66.376328 24.980898 19.577225 7.260389 -0.595188 5.195386 3.208602 3.547799 0.145591 -2.897102 -2.662852 42.732616 -18.292217 -2.391923 -0.121268 -61.017155 -43.665382 20.526657 -90.808571 0.529273 0.067279 -42.689285 30.000000 21.149384 25.575157 4.562530 -0.243029 61.225864 24.604443 19.709459 20.403503 -1.118199 -7.383463 -8.673544 -23.247143 27.960260 -90.604752 12.498820 -3.650430 144.975632 7.846283 -2.864016 -51.517086 16.320807 17.190414 -17.352011 -11.731937 -39.303112 144.987015 -9.999159 4.888921 -76.254189 -2.541846 -13.533473 
-0.294395 20.562685 -9.615985 -15.261836 -25.790340 0.441236 65.951599 24.558062 19.502026 7.153507 -0.546338 5.371164 2.870088 3.156653 0.105579 -2.943493 -2.879420 42.556419 -18.243347 -2.372418 -0.120261 -60.965714 -43.299202 20.294645 -90.486275 0.558813 0.060832 -41.842865 30.000000 21.866835 25.982918 3.967562 -0.212239 61.522896 25.185305 20.673447 18.785419 -1.280090 -8.549196 -5.434729 -23.045168 26.497950 -91.140625 13.379063 -3.910384 144.987457 7.757819 -2.896471 -51.901623 15.885014 17.044554 -18.523718 -11.205798 -38.417465 144.978546 -9.994270 4.820313 -76.770218 -2.963590 -13.454064 
-0.301666 20.652599 -9.720807 -14.449553 -25.751434 -0.393019 65.540291 24.411970 19.553905 6.906597 -0.575539 5.537170 2.268253 2.667482 0.071048 -2.949285 -3.211266 41.838310 -18.253412 -2.508954 -0.127312 -60.719200 -42.785057 20.013697 -89.890793 0.529555 0.037845 -40.745937 30.000000 22.791412 26.322275 3.255573 -0.175373 61.850422 25.665495 21.346565 17.552980 -1.462503 -9.764030 -1.480901 -23.838821 24.723993 -91.734802 14.208937 -4.202403 144.974869 7.749117 -2.958963 -51.930809 15.523952 16.670494 -19.451992 -10.622283 -37.755264 144.981949 -9.997902 4.752408 -77.316177 -3.446007 -13.520990 
-0.308937 20.742517 -9.825631 -13.638809 -25.698009 -1.227261 65.104698 24.279226 19.586632 6.668820 -0.614483 5.703276 1.677748 2.179759 0.045707 -2.956906 -3.549349 41.120796 -18.273260 -2.645490 -0.134362 -60.472466 -42.274204 19.714746 -89.295349 0.509775 0.013924 -39.741608 30.000000 23.662560 26.671858 2.543581 -0.138478 62.178902 26.135147 22.016989 16.330845 -1.599094 -10.998823 2.513634 -24.434130 22.915539 -92.343987 15.028143 -4.514853 144.984741 7.774068 -3.009528 -51.946121 15.165774 16.232922 -20.369078 -10.034599 -37.084377 144.982544 -9.998045 4.734469 -77.853348 -3.907643 -13.592179 
-0.327534 20.847736 -9.911133 -12.851280 -25.651537 -1.921670 64.646843 24.285295 19.665756 6.381960 -0.663189 5.820455 0.990328 1.671257 0.014023 -2.907116 -3.915028 40.161114 -18.303091 -2.860047 -0.145440 -60.145977 -41.681023 19.409124 -88.582634 0.421539 -0.006534 -38.656727 30.000000 24.523567 26.963274 1.812092 -0.100554 62.497925 26.510649 22.508646 15.390455 -1.620577 -11.747787 6.293149 -25.126408 20.984352 -92.982491 15.820003 -4.876742 144.986359 7.827547 -3.072814 -51.858944 14.728950 15.745989 -21.071728 -9.448200 -36.586521 144.982834 -9.998117 4.725486 -78.511009 -4.333594 -13.773625 
-0.357460 20.968260 -9.977315 -12.095537 -25.623768 -2.472027 64.169098 24.433558 19.766102 6.044912 -0.741158 5.888924 0.206668 1.125587 -0.002224 -2.805168 -4.310338 38.968674 -18.342951 -3.152625 -0.160543 -59.735100 -41.018925 19.080845 -87.723381 0.274554 -0.023339 -37.500095 30.000000 25.371782 27.206324 1.061104 -0.061425 62.821198 26.773447 22.840649 14.741765 -1.558354 -12.020557 9.878441 -25.944912 18.920980 -93.623184 16.543140 -5.286542 144.992020 7.935043 -3.145113 -51.725525 14.268105 15.146217 -21.569595 -8.872052 -36.275696 144.983414 -9.998254 4.707561 -79.210800 -4.729284 -14.061273 
-0.387384 21.088785 -10.043500 -11.335238 -25.594160 -3.013548 63.706348 24.600586 19.882631 5.707510 -0.819108 5.967038 -0.566058 0.581375 -0.008851 -2.685038 -4.699988 37.765549 -18.392679 -3.454954 -0.176144 -59.324795 -40.348911 18.756380 -86.873764 0.107822 -0.036624 -36.463097 30.000000 26.140055 27.449839 0.324370 -0.014432 63.152107 27.038208 23.177132 14.103488 -1.492498 -12.292667 13.524637 -26.551641 16.833485 -94.266708 17.275364 -5.692042 144.989182 8.057923 -3.217946 -51.558197 13.755050 14.511591 -22.067705 -8.316196 -35.938999 144.983704 -9.998331 4.698575 -79.895195 -5.083951 -14.304439 
-0.467151 21.220398 -10.030595 -10.807962 -25.455841 -3.096638 63.040195 24.985762 19.775436 5.372229 -0.887391 5.918205 -1.406230 0.167069 -0.005495 -2.411102 -5.103880 36.229954 -18.550152 -3.825552 -0.195262 -58.736336 -39.453922 18.212070 -85.790359 -0.351526 -0.029651 -35.352333 30.000000 26.673008 27.459547 -0.284796 0.008157 63.418045 27.079172 23.156603 14.244726 -0.995113 -10.279599 15.917397 -26.489464 14.882750 -94.785942 17.840611 -5.999983 144.990402 8.243747 -3.337481 -51.479179 13.184090 14.017834 -22.079584 -8.007169 -36.110611 144.983994 -9.998401 4.689592 -80.387268 -5.318261 -14.682345 
-0.546914 21.352007 -10.017691 -10.270763 -25.327244 -3.179745 62.382290 25.363989 19.672647 5.027771 -0.945926 5.869531 -2.246049 -0.255432 0.008973 -2.130940 -5.508791 34.684689 -18.707787 -4.205901 -0.214874 -58.153393 -38.558872 17.675581 -84.696434 -0.829712 -0.007743 -34.314377 27.563557 27.147707 27.469540 -0.889459 0.039412 63.697517 27.108450 23.140547 14.378296 -0.491065 -8.268342 18.304350 -26.306156 12.953564 -95.321495 18.417978 -6.356543 144.983871 8.446040 -3.472775 -51.346359 12.589088 13.524991 -22.105392 -7.718476 -36.248295 144.982971 -9.992902 4.697170 -80.839371 -5.527252 -15.059048 
-0.659535 21.479755 -9.958787 -9.859698 -25.115868 -3.022780 61.551231 25.796816 19.326990 4.705947 -0.965508 5.703528 -3.046622 -0.570259 0.017047 -1.776276 -5.896548 33.136242 -18.894850 -4.586250 -0.234476 -57.503738 -37.532040 17.000702 -83.523453 -1.461935 0.047437 -33.367699 24.799435 27.370869 27.372492 -1.353080 0.072269 63.952824 27.007000 23.017546 14.919218 0.170465 -5.473769 19.772324 -25.543669 11.661539 -95.732727 18.905119 -6.579889 144.987869 8.643515 -3.597220 -51.234753 11.900379 13.082599 -21.931376 -7.584393 -36.547802 144.983994 -9.998401 4.689598 -80.982269 -5.626076 -15.288851 
-0.805009 21.603645 -9.853885 -9.580091 -24.821190 -2.603979 60.538338 26.284233 18.729033 4.416566 -0.936355 5.439713 -3.808325 -0.774490 0.038037 -1.336826 -6.266434 31.566584 -19.111338 -4.966600 -0.254914 -56.813095 -36.360550 16.202820 -82.279861 -2.265810 0.148364 -32.472210 22.024485 27.359194 27.167881 -1.694421 0.089906 64.187286 26.767265 22.789333 15.845093 1.071939 -1.916686 20.301575 -24.275412 11.009418 -96.040680 19.306210 -6.688866 144.986389 8.867740 -3.705887 -51.207973 11.192457 12.765909 -21.578489 -7.621090 -36.974648 144.981949 -9.997906 4.752393 -80.754990 -5.571517 -15.363262 
-0.950484 21.727531 -9.748982 -9.309943 -24.525360 -2.180480 59.518932 26.758532 18.124981 4.117445 -0.907198 5.166296 -4.570079 -0.988377 0.060486 -0.889478 -6.623645 29.995821 -19.318243 -5.356699 -0.275062 -56.148693 -35.182877 15.437822 -81.033577 -3.065485 0.277742 -31.585814 19.258596 27.308119 26.963398 -2.045515 0.108393 64.413216 26.533770 22.555111 16.714790 2.098243 1.610046 20.786179 -23.009129 10.380150 -96.320541 19.716038 -6.818692 144.975250 9.086713 -3.826599 -51.200069 10.410671 12.402104 -21.226885 -7.669783 -37.430035 144.988403 -9.994373 4.823929 -80.533928 -5.513184 -15.477588 
-1.147098 21.844870 -9.572308 -9.285472 -24.162287 -1.533937 58.338081 27.133659 17.153189 3.872418 -0.790292 4.756031 -5.214741 -0.957949 0.065763 -0.313217 -6.868783 28.602823 -19.583479 -5.668779 -0.291173 -55.421326 -33.761139 14.361509 -79.730629 -4.134772 0.517431 -30.925159 16.753357 26.946907 26.455734 -2.123536 0.112437 64.703453 26.109772 22.284235 18.222019 3.226443 4.845162 19.497536 -21.763218 11.482179 -96.292709 20.096762 -6.753467 144.984604 9.296947 -3.936168 -51.160427 9.767938 12.318299 -20.672359 -7.858705 -37.925251 144.986160 -9.998954 4.915810 -79.887550 -5.364169 -15.086097 
-1.343711 21.962208 -9.395635 -9.251753 -23.806067 -0.887426 57.157833 27.486286 16.163616 3.626017 -0.683087 4.336014 -5.859410 -0.937177 0.072659 0.266364 -7.104641 27.217352 -19.858570 -5.980859 -0.307274 -54.742825 -32.327641 13.326102 -78.410812 -5.000000 0.800695 -30.226339 14.254948 26.557709 25.938305 -2.201556 0.116480 64.993187 25.685223 22.001064 19.665777 4.528540 8.012369 18.276928 -20.485865 12.531361 -96.275055 20.497662 -6.701368 144.982574 9.486333 -4.049133 -51.138355 9.089746 12.176648 -20.096554 -8.054659 -38.402542 144.983261 -9.998231 5.005487 -79.240036 -5.155795 -14.690973 
-1.544052 22.084795 -9.210991 -9.237516 -23.554361 -0.323194 56.014721 27.825199 15.209683 3.389326 -0.556320 3.886722 -6.435624 -0.848814 0.069165 0.860415 -7.244731 26.091848 -20.104343 -6.273433 -0.322360 -54.065105 -30.814600 12.212024 -77.141151 -5.000000 1.122591 -29.634937 12.093776 26.176039 25.342209 -2.176479 0.106145 65.299263 25.168997 21.714275 21.178663 5.000000 10.652227 16.690649 -19.487162 13.821688 -96.201172 20.935955 -6.733492 144.973618 9.694005 -4.167260 -51.125641 8.482725 12.137072 -19.538939 -8.081777 -38.810032 144.987762 -9.999382 5.159857 -78.698608 -5.022532 -14.127183 
